#!OML:ASF E:\acrobat2\Project_11_07_03\Capture day 1\Session 1\Acrobat.ASF
:FULLY-SPECIFIED
:DEGREES
765
root 7.19489 18.2924 -17.402 -350.614 4.46867 -0.616734
lowerback -7.48213 0.74975 1.72961
upperback -5.2527 0.904732 -1.0254
thorax -1.18888 0.39723 -1.96974
lowerneck -1.23363 -2.10171 0.205117
upperneck 7.12088 -2.92175 1.52811
head 2.47597 -1.40532 0.375854
rclavicle 2.6339e-015 5.36719e-015
rhumerus -42.2501 2.6215 -88.5455
rradius 25.7846
rwrist 5.02803
rhand -4.88014 -400.87
rfingers 7.12502
rthumb 20.9086 -429.764
lclavicle 2.6339e-015 5.36719e-015
lhumerus -34.4384 -13.5689 89.1694
lradius 18.6769
lwrist 6.99426
lhand -7.32563 -9.68859
lfingers 7.12502
lthumb 18.5576 379.446
rfemur -1.21234 4.76028 21.4181
rtibia 3.99964
rfoot 158.516 -198.412
rtoes 8.17041
lfemur -1.22998 2.29402 -19.7065
ltibia 2.6549
lfoot -6.51298 -7.49781
ltoes 44.2683
766
root 7.19507 18.298 -17.4126 -350.653 4.67708 -0.602172
lowerback -7.39255 0.663727 1.64778
upperback -5.27384 0.796566 -0.990196
thorax -1.26654 0.34474 -1.89546
lowerneck -1.32897 -2.06466 0.138998
upperneck 7.2544 -2.8781 1.60812
head 2.54023 -1.38152 0.4121
rclavicle -6.06293e-015 7.35503e-015
rhumerus -42.2976 2.64208 -88.5261
rradius 25.8111
rwrist 5.09158
rhand -4.78783 -401.032
rfingers 7.12502
rthumb 20.9973 -429.916
lclavicle -6.06293e-015 7.35503e-015
lhumerus -34.5775 -13.7391 89.353
lradius 18.6669
lwrist 7.25122
lhand -7.3556 -9.60652
lfingers 7.12502
lthumb 18.5288 379.531
rfemur -1.16488 4.69218 21.4253
rtibia 3.95802
rfoot 158.516 -198.412
rtoes 8.17041
lfemur -1.28731 2.34028 -19.6871
ltibia 2.73325
lfoot -5.92503 -7.63148
ltoes 46.803
767
root 7.19614 18.301 -17.4208 -350.679 4.8456 -0.606566
lowerback -7.28318 0.587799 1.60057
upperback -5.35808 0.70018 -0.965741
thorax -1.41934 0.295936 -1.85131
lowerneck -1.27318 -2.08798 0.129917
upperneck 7.36888 -2.91042 1.60528
head 2.56863 -1.39736 0.412025
rclavicle 2.26118e-015 4.77083e-015
rhumerus -42.4294 2.79212 -88.6085
rradius 25.8001
rwrist 5.03827
rhand -4.90177 -401.017
rfingers 7.12502
rthumb 20.8878 -429.912
lclavicle 2.26118e-015 4.77083e-015
lhumerus -34.7787 -13.8215 89.4836
lradius 18.6404
lwrist 7.36808
lhand -7.42099 -9.62419
lfingers 7.12502
lthumb 18.4659 379.519
rfemur -1.12818 4.57483 21.432
rtibia 3.89115
rfoot 158.431 -198.582
rtoes 8.47303
lfemur -1.31214 2.4128 -19.6533
ltibia 2.76139
lfoot -5.74812 -7.73038
ltoes 46.7159
768
root 7.19873 18.3008 -17.4249 -350.708 4.84716 -0.600328
lowerback -7.24155 0.579341 1.5763
upperback -5.4238 0.690988 -0.968129
thorax -1.51116 0.290561 -1.84152
lowerneck -1.11563 -2.08902 0.145555
upperneck 7.34064 -2.90856 1.57386
head 2.52943 -1.39795 0.401213
rclavicle 8.19987e-015 0
rhumerus -42.5026 2.85793 -88.6513
rradius 25.7143
rwrist 5.01341
rhand -4.96825 -400.802
rfingers 7.12502
rthumb 20.8239 -429.705
lclavicle 8.19987e-015 0
lhumerus -34.9185 -13.8492 89.56
lradius 18.574
lwrist 7.44637
lhand -7.3977 -9.64695
lfingers 7.12502
lthumb 18.4883 379.494
rfemur -1.11677 4.4257 21.398
rtibia 3.88184
rfoot 159.139 -198.584
rtoes 6.92101
lfemur -1.24162 2.45483 -19.6633
ltibia 2.68616
lfoot -5.47433 -7.74214
ltoes 47.8874
769
root 7.19927 18.3005 -17.4304 -350.745 4.8487 -0.52935
lowerback -7.19255 0.574796 1.49451
upperback -5.44388 0.689728 -1.00634
thorax -1.5594 0.290946 -1.83565
lowerneck -1.07085 -2.04948 0.161162
upperneck 7.31929 -2.85705 1.59856
head 2.51388 -1.37157 0.408286
rclavicle 2.0276e-014 7.35503e-015
rhumerus -42.4849 2.84573 -88.659
rradius 25.6217
rwrist 5.0449
rhand -4.87533 -400.749
rfingers 7.12502
rthumb 20.9132 -429.642
lclavicle 2.0276e-014 7.35503e-015
lhumerus -34.992 -13.862 89.5723
lradius 18.5398
lwrist 7.50091
lhand -7.3303 -9.58944
lfingers 7.12502
lthumb 18.5531 379.546
rfemur -1.08767 4.35339 21.3054
rtibia 3.91224
rfoot 159.437 -198.582
rtoes 6.3068
lfemur -1.17834 2.45355 -19.7445
ltibia 2.6317
lfoot -5.19118 -7.71387
ltoes 49.1123
770
root 7.19771 18.3014 -17.4414 -350.766 4.97775 -0.421994
lowerback -7.06823 0.539429 1.37939
upperback -5.46294 0.649788 -1.0739
thorax -1.64983 0.27209 -1.84417
lowerneck -1.16653 -2.05253 0.126564
upperneck 7.45006 -2.87505 1.77411
head 2.57924 -1.3748 0.468102
rclavicle -3.97569e-015 -4.77083e-015
rhumerus -42.4398 2.87679 -88.7179
rradius 25.5752
rwrist 4.92558
rhand -4.84028 -400.784
rfingers 7.12502
rthumb 20.9469 -429.673
lclavicle -3.97569e-015 -4.77083e-015
lhumerus -35.0056 -13.8067 89.4896
lradius 18.478
lwrist 7.3016
lhand -7.34637 -9.83606
lfingers 7.12502
lthumb 18.5377 379.301
rfemur -1.05267 4.3949 21.1986
rtibia 3.87909
rfoot 159.347 -198.692
rtoes 6.61797
lfemur -1.22571 2.46709 -19.8508
ltibia 2.68355
lfoot -5.05697 -7.74187
ltoes 49.044
771
root 7.19692 18.3031 -17.4528 -350.789 5.00488 -0.417892
lowerback -6.9367 0.554103 1.32
upperback -5.46962 0.673618 -1.08225
thorax -1.72884 0.284856 -1.81929
lowerneck -1.27596 -2.05639 0.0445217
upperneck 7.53987 -2.89167 1.94463
head 2.63443 -1.37887 0.534685
rclavicle 9.14409e-015 -1.78906e-014
rhumerus -42.3945 2.87459 -88.7096
rradius 25.5708
rwrist 4.82233
rhand -5.00824 -400.601
rfingers 7.12502
rthumb 20.7855 -429.508
lclavicle 9.14409e-015 -1.78906e-014
lhumerus -34.9311 -13.7626 89.4594
lradius 18.3764
lwrist 7.05313
lhand -7.41633 -10.0657
lfingers 7.12502
lthumb 18.4704 379.077
rfemur -1.06393 4.47768 21.2056
rtibia 3.86843
rfoot 159.255 -198.796
rtoes 6.73539
lfemur -1.2408 2.46562 -19.8508
ltibia 2.67597
lfoot -5.26121 -7.74092
ltoes 47.8231
772
root 7.19718 18.3058 -17.4626 -350.822 5.02246 -0.408037
lowerback -6.81915 0.56204 1.24898
upperback -5.4804 0.68894 -1.06032
thorax -1.80523 0.294256 -1.75714
lowerneck -1.23909 -2.05545 0.0429361
upperneck 7.42279 -2.88518 1.90861
head 2.58768 -1.37796 0.52434
rclavicle 1.15544e-014 -1.82882e-014
rhumerus -42.4172 2.86919 -88.6579
rradius 25.5703
rwrist 4.84609
rhand -5.17018 -400.448
rfingers 7.12502
rthumb 20.6299 -429.372
lclavicle 1.15544e-014 -1.82882e-014
lhumerus -34.9407 -13.9038 89.5854
lradius 18.412
lwrist 7.14506
lhand -7.38365 -9.71896
lfingers 7.12502
lthumb 18.5018 379.421
rfemur -1.07958 4.43706 21.1882
rtibia 3.89611
rfoot 158.731 -198.77
rtoes 7.70015
lfemur -1.21782 2.43085 -19.8646
ltibia 2.64571
lfoot -5.75338 -7.74444
ltoes 45.1267
773
root 7.19815 18.3074 -17.4717 -350.822 5.19291 -0.28877
lowerback -6.73914 0.480442 1.13328
upperback -5.53578 0.58649 -1.07453
thorax -1.91183 0.244895 -1.71313
lowerneck -1.0603 -2.01615 0.0183394
upperneck 7.29735 -2.82574 1.87782
head 2.51222 -1.35203 0.522409
rclavicle -1.49089e-016 -2.38542e-015
rhumerus -42.5592 3.06801 -88.7354
rradius 25.634
rwrist 4.72723
rhand -5.14531 -400.634
rfingers 7.12502
rthumb 20.6538 -429.555
lclavicle -1.49089e-016 -2.38542e-015
lhumerus -35.1031 -13.9844 89.6802
lradius 18.5045
lwrist 7.28981
lhand -7.26809 -9.29858
lfingers 7.12502
lthumb 18.613 379.831
rfemur -1.05863 4.23044 21.0452
rtibia 3.85425
rfoot 158.663 -198.747
rtoes 7.76002
lfemur -1.26963 2.43755 -20.0051
ltibia 2.71081
lfoot -5.71601 -7.87788
ltoes 44.5719
774
root 7.20127 18.307 -17.4796 -350.807 5.18997 -0.268526
lowerback -6.67844 0.454748 1.14794
upperback -5.61534 0.552023 -1.07313
thorax -2.02941 0.225743 -1.72262
lowerneck -0.837411 -1.96511 -0.0296304
upperneck 7.19265 -2.75108 1.86053
head 2.43639 -1.31875 0.529366
rclavicle -4.4975e-015 -3.18055e-015
rhumerus -42.7573 3.3099 -88.8277
rradius 25.7634
rwrist 4.59491
rhand -5.12012 -400.609
rfingers 7.12502
rthumb 20.678 -429.527
lclavicle -4.4975e-015 -3.18055e-015
lhumerus -35.2187 -13.8436 89.6677
lradius 18.4701
lwrist 7.15859
lhand -7.16421 -9.24012
lfingers 7.12502
lthumb 18.7129 379.88
rfemur -1.09904 4.0308 20.9803
rtibia 3.84583
rfoot 158.942 -198.578
rtoes 7.54059
lfemur -1.31482 2.44456 -20.0791
ltibia 2.73208
lfoot -5.2937 -7.87127
ltoes 46.9774
